<svg width="30" height="22" viewBox="0 0 30 22" fill="none" xmlns="http://www.w3.org/2000/svg">
<path d="M29.375 4.13385C29.2051 3.52788 28.8742 2.97928 28.4175 2.54634C27.9479 2.1001 27.3722 1.78089 26.745 1.61884C24.3975 1.00009 14.9925 1.0001 14.9925 1.0001C11.0717 0.955486 7.15179 1.15169 3.255 1.58759C2.62774 1.76161 2.05321 2.08795 1.5825 2.5376C1.12 2.9826 0.785001 3.53135 0.610001 4.1326C0.189617 6.39727 -0.0146341 8.69678 9.10193e-07 11.0001C-0.0149991 13.3013 0.188751 15.6001 0.610001 17.8676C0.781251 18.4663 1.115 19.0126 1.57875 19.4538C2.0425 19.8951 2.62 20.2138 3.255 20.3826C5.63375 21.0001 14.9925 21.0001 14.9925 21.0001C18.9183 21.0448 22.8432 20.8486 26.745 20.4126C27.3722 20.2506 27.9479 19.9313 28.4175 19.4851C28.8741 19.0522 29.2046 18.5036 29.3738 17.8976C29.8051 15.6338 30.0149 13.3333 30 11.0288C30.0324 8.7146 29.823 6.4033 29.375 4.1326V4.13385ZM12.0025 15.2801V6.72134L19.8275 11.0013L12.0025 15.2801Z" fill="white" fill-opacity="0.6"/>
</svg>
