<svg width="23" height="26" viewBox="0 0 23 26" fill="none" xmlns="http://www.w3.org/2000/svg">
<path d="M21.4875 6.3625C20.2414 6.08849 19.1142 5.42679 18.2676 4.47237C17.421 3.51794 16.8984 2.31984 16.775 1.05V0.5H12.4625V17.5875C12.4634 18.3457 12.2257 19.085 11.7831 19.7006C11.3404 20.3162 10.7153 20.7769 9.99633 21.0175C9.27731 21.2581 8.50082 21.2663 7.77685 21.0411C7.05287 20.8159 6.41812 20.3685 5.9625 19.7625C5.55431 19.2261 5.30436 18.5861 5.24091 17.915C5.17746 17.2439 5.30305 16.5684 5.60347 15.965C5.90389 15.3616 6.36716 14.8542 6.94089 14.5003C7.51462 14.1464 8.17592 13.9601 8.85 13.9625C9.2228 13.9604 9.59374 14.0152 9.95 14.125V9.75C9.53542 9.69866 9.11763 9.67777 8.7 9.6875C7.16164 9.72861 5.66865 10.2174 4.40386 11.0941C3.13906 11.9708 2.15736 13.1972 1.57897 14.6233C1.00058 16.0494 0.850598 17.6132 1.1474 19.1232C1.44419 20.6332 2.17489 22.0239 3.25 23.125C4.35186 24.2453 5.76187 25.0127 7.30087 25.3297C8.83987 25.6468 10.4384 25.4992 11.8933 24.9057C13.3483 24.3122 14.5939 23.2996 15.472 21.9966C16.3502 20.6935 16.8211 19.1588 16.825 17.5875V8.8375C18.5643 10.0799 20.65 10.7446 22.7875 10.7375V6.4875C22.3676 6.48923 21.9487 6.44734 21.5375 6.3625H21.4875Z" fill="white" fill-opacity="0.6"/>
</svg>
